<?xml version="1.0" encoding="UTF-8"?>
<svg width="32px" height="32px" viewBox="0 0 32 32" version="1.1" xmlns="http://www.w3.org/2000/svg">
  <g fill="none" fill-rule="evenodd">
    <rect fill="#4F46E5" x="0" y="0" width="32" height="32" rx="6"></rect>
    <path d="M17.5,22 L17.5,19.1 L14.5,19.1 L14.5,22 L9,22 L9,10 L23,10 L23,22 L17.5,22 Z M21,12 L11,12 L11,20 L12.5,20 L12.5,17.1 L19.5,17.1 L19.5,20 L21,20 L21,12 Z" fill="#FFFFFF" fill-rule="nonzero"></path>
    <path d="M7,24 L7,8 L8,8 C8.55228475,8 9,8.44771525 9,9 L9,23 C9,23.5522847 8.55228475,24 8,24 L7,24 Z" fill="#FFFFFF" fill-rule="nonzero"></path>
  </g>
</svg>